<svg id="single_bed-24px" xmlns="http://www.w3.org/2000/svg" width="24" height="24" viewBox="0 0 24 24">
  <g id="Grupo_6" data-name="Grupo 6">
    <rect id="Retângulo_20" data-name="Retângulo 20" width="24" height="24" fill="none"/>
  </g>
  <g id="Grupo_7" data-name="Grupo 7" transform="translate(-0.238 -0.208)">
    <path id="Caminho_4" data-name="Caminho 4" d="M20.476,12.208a2.066,2.066,0,0,0-2.06-2.06V7.06A2.066,2.066,0,0,0,16.357,5H8.119A2.066,2.066,0,0,0,6.06,7.06v3.089A2.066,2.066,0,0,0,4,12.208v5.149H5.37l.69,2.06h1.03l.69-2.06h8.928l.68,2.06h1.03l.69-2.06h1.37Zm-4.119-2.06H13.268V7.06h3.089ZM8.119,7.06h3.089v3.089H8.119ZM6.06,12.208H18.417V15.3H6.06Z" fill="#ed7203"/>
  </g>
</svg>
